# xmcd
#
# Track frame offsets:
#      150
#      10346
#      19911
#      27856
#      40104
#      50638
#      62507
#      72410
#      84028
#      93414
# 
# Disc length: 1376 seconds
#
# Revision: 1
# Processed by: cddbd v1.5.1PL2 Copyright (c) Steve Scherf et al.
#
# Submitted via: FreeRIP 1.20
#
DISCID=75055e0a
DTITLE=Johnny Cash - Hey Porter
DYEAR=2005
DGENRE=Country
TTITLE0=Hey Porter
TTITLE1=Down The Street To 301
TTITLE2=Hey Good Lookin'
TTITLE3=Goodnight Irene
TTITLE4=You Win Again
TTITLE5=Wide Open Road
TTITLE6=Born To Lose
TTITLE7=Big River
TTITLE8=I Couldn't Keep From Crying
TTITLE9=Story Of A Broken Heart
EXTD=YEAR: 2005
EXTT0=
EXTT1=
EXTT2=
EXTT3=
EXTT4=
EXTT5=
EXTT6=
EXTT7=
EXTT8=
EXTT9=
PLAYORDER=
